<?xml version="1.0" encoding="UTF-8" standalone="no"?>
<svg
   width="66.026344"
   height="58"
   fill="none"
   version="1.1"
   id="svg874"
   sodipodi:docname="eslint.svg"
   inkscape:version="1.1.2 (b8e25be8, 2022-02-05)"
   xmlns:inkscape="http://www.inkscape.org/namespaces/inkscape"
   xmlns:sodipodi="http://sodipodi.sourceforge.net/DTD/sodipodi-0.dtd"
   xmlns="http://www.w3.org/2000/svg"
   xmlns:svg="http://www.w3.org/2000/svg">
  <defs
     id="defs878" />
  <sodipodi:namedview
     id="namedview876"
     pagecolor="#ffffff"
     bordercolor="#666666"
     borderopacity="1.0"
     inkscape:pageshadow="2"
     inkscape:pageopacity="0.0"
     inkscape:pagecheckerboard="0"
     showgrid="false"
     fit-margin-top="0"
     fit-margin-left="0"
     fit-margin-right="0"
     fit-margin-bottom="0"
     inkscape:zoom="2.7438424"
     inkscape:cx="101.13555"
     inkscape:cy="28.973968"
     inkscape:window-width="1920"
     inkscape:window-height="1027"
     inkscape:window-x="1440"
     inkscape:window-y="25"
     inkscape:window-maximized="0"
     inkscape:current-layer="svg874" />
  <g
     id="g1042"
     transform="translate(-0.49651634)">
    <path
       d="m 46.557,21.11 -12.54,-7.24 a 1.014,1.014 0 0 0 -1.015,0 l -12.54,7.24 a 1.015,1.015 0 0 0 -0.508,0.878 v 14.48 c 0,0.362 0.194,0.697 0.508,0.879 l 12.54,7.24 c 0.314,0.181 0.7,0.181 1.015,0 l 12.54,-7.24 c 0.314,-0.181 0.507,-0.516 0.507,-0.879 v -14.48 c 0,-0.363 -0.193,-0.697 -0.507,-0.879 z"
       fill="#8080f2"
       id="path868" />
    <path
       d="M 0.904,27.705 15.888,1.638 C 16.432,0.695 17.438,0 18.526,0 h 29.967 c 1.089,0 2.094,0.695 2.639,1.638 l 14.983,26.01 a 3.1,3.1 0 0 1 0,3.074 L 51.132,56.576 C 50.587,57.518 49.582,58 48.493,58 H 18.526 c -1.088,0 -2.094,-0.467 -2.638,-1.41 L 0.905,30.694 a 2.94,2.94 0 0 1 0,-2.99 z m 12.407,12.534 c 0,0.384 0.231,0.738 0.563,0.93 L 32.96,52.18 c 0.332,0.192 0.748,0.192 1.08,0 l 19.1,-11.011 c 0.332,-0.192 0.564,-0.546 0.564,-0.93 V 18.216 c 0,-0.383 -0.229,-0.738 -0.56,-0.93 L 34.057,6.277 a 1.084,1.084 0 0 0 -1.079,0 l -19.102,11.01 c -0.332,0.192 -0.566,0.547 -0.566,0.93 V 40.24 Z"
       fill="#4b32c3"
       id="path870" />
  </g>
</svg>
