<svg xmlns="http://www.w3.org/2000/svg" viewBox="0 0 87 87"><defs><style>.cls-1{fill:#494949;}.cls-2{fill:#fff;}</style></defs><title>Asset 19expressjs-logo</title><g id="Layer_2" data-name="Layer 2"><g id="Layer_1-2" data-name="Layer 1"><path class="cls-1" d="M43.5,0h0A43.51,43.51,0,0,1,87,43.5h0A43.51,43.51,0,0,1,43.5,87h0A43.51,43.51,0,0,1,0,43.5H0A43.51,43.51,0,0,1,43.5,0Z"/><path class="cls-2" d="M43.5,5.25h0A38.26,38.26,0,0,1,81.75,43.5h0A38.26,38.26,0,0,1,43.5,81.75h0A38.26,38.26,0,0,1,5.25,43.5h0A38.26,38.26,0,0,1,43.5,5.25Z"/><path class="cls-1" d="M23.72,44.33c.1,6.33,4.1,8.94,8.84,8.94a16.67,16.67,0,0,0,7.13-1.33l.8,3.36A20.58,20.58,0,0,1,31.92,57C24,57,19.24,51.67,19.24,44s4.58-13.9,12.14-13.9c8.37,0,10.6,7.35,10.6,12.09a10.15,10.15,0,0,1-.21,2.19ZM37.46,41c0-2.93-1.23-7.56-6.5-7.56-4.74,0-6.82,4.31-7.19,7.56Z"/><path class="cls-1" d="M49.81,30.64l3.67,5.48c1,1.44,1.76,2.77,2.61,4.16h.11c.85-1.44,1.76-2.82,2.61-4.21l3.57-5.43h5.11L58.7,43.05l9.06,13.31H62.48l-3.83-5.75c-1-1.55-1.86-3-2.77-4.53h-.11c-.85,1.6-1.75,2.93-2.71,4.53l-3.73,5.75H44.17l9.16-13.15L44.59,30.64Z"/></g></g></svg>