<?xml version="1.0" encoding="UTF-8" standalone="no"?>
<svg
   width="35.7463"
   height="39.999569"
   viewBox="0 0 35.7463 39.999569"
   fill="none"
   version="1.1"
   id="svg867"
   sodipodi:docname="mailtrap-logo-inverse.svg"
   inkscape:version="1.1.2 (b8e25be8, 2022-02-05)"
   xmlns:inkscape="http://www.inkscape.org/namespaces/inkscape"
   xmlns:sodipodi="http://sodipodi.sourceforge.net/DTD/sodipodi-0.dtd"
   xmlns="http://www.w3.org/2000/svg"
   xmlns:svg="http://www.w3.org/2000/svg">
  <sodipodi:namedview
     id="namedview869"
     pagecolor="#ffffff"
     bordercolor="#666666"
     borderopacity="1.0"
     inkscape:pageshadow="2"
     inkscape:pageopacity="0.0"
     inkscape:pagecheckerboard="0"
     showgrid="false"
     fit-margin-top="0"
     fit-margin-left="0"
     fit-margin-right="0"
     fit-margin-bottom="0"
     inkscape:zoom="5.8697362"
     inkscape:cx="70.105366"
     inkscape:cy="30.580591"
     inkscape:window-width="1920"
     inkscape:window-height="1027"
     inkscape:window-x="1440"
     inkscape:window-y="25"
     inkscape:window-maximized="1"
     inkscape:current-layer="svg867" />
  <g
     id="g1222"
     transform="translate(0,0.42724575)">
    <path
       d="m 6.82667,28.9171 -3.39445,2.0134 c -0.46048,0.3028 -0.25007,0.8233 0,0.9281 l 13.18288,7.3865 c 0.7787,0.4363 1.7381,0.4363 2.5168,0 l 13.3575,-7.4843 c 0.4047,-0.2397 0.3383,-0.727 0,-0.8914 l -3.5891,-1.9392 c -0.303,-0.1998 -0.9785,-0.1334 -1.2178,0.0294 l -8.5506,4.7909 c -0.7787,0.4363 -1.7381,0.4363 -2.5168,0 L 7.98876,28.9171 c -0.32158,-0.1978 -0.83099,-0.1866 -1.16209,0 z"
       fill="#ffffff"
       id="path824" />
    <path
       d="m 16.6147,-0.100014 c 0.7787,-0.436309 1.738,-0.436309 2.5167,0 0,0 9.9943,5.599884 10.616,5.948214 0.4238,0.21442 0.4622,0.79006 0,1.04964 C 29.0476,7.28853 28.1089,7.81207 27.33,8.24642 26.4201,8.75386 25.3124,8.75236 24.4035,8.24307 L 19.1314,5.28911 c -0.7787,-0.43631 -1.738,-0.43631 -2.5167,0 L 11.3364,8.24658 C 10.4268,8.7562 9.31816,8.75714 8.40764,8.2493 7.59793,7.79767 6.61568,7.25012 5.90786,6.85654 5.51524,6.68794 5.43352,6.1874 5.90786,5.89909 Z"
       fill="#ffffff"
       id="path826" />
    <path
       d="m 34.4879,8.85338 c 0.7787,0.43631 1.2584,1.24262 1.2584,2.11522 v 17.2086 c 0,0.8517 -0.5334,1.0106 -1.1023,0.7132 L 30.7127,26.7685 V 15.1992 l -11.5812,6.489 c -0.7787,0.4363 -1.738,0.4363 -2.5167,0 L 5.03356,15.1992 V 26.7671 L 1.4613,28.8879 C 1.03556,29.1586 0,29.2439 0,28.1772 V 10.9686 C 0,10.096 0.479696,9.28969 1.25839,8.85338 c 1.25288,-0.65609 2.54746,0 2.54746,0 L 17.8731,16.7526 31.9184,8.85338 c 0,0 1.2473,-0.75226 2.5695,0 z"
       fill="#22d172"
       id="path828" />
  </g>
  <defs
     id="defs865">
    <clipPath
       id="clip0_4259_71606">
      <rect
         width="151"
         height="40"
         fill="#ffffff"
         id="rect862"
         x="0"
         y="0" />
    </clipPath>
  </defs>
</svg>
