<?xml version="1.0" encoding="UTF-8" standalone="no"?>
<svg
   width="141"
   height="278"
   viewBox="0 0 141 278"
   fill="none"
   version="1.1"
   id="svg948"
   sodipodi:docname="mongodb.svg"
   inkscape:version="1.1.2 (b8e25be8, 2022-02-05)"
   xmlns:inkscape="http://www.inkscape.org/namespaces/inkscape"
   xmlns:sodipodi="http://sodipodi.sourceforge.net/DTD/sodipodi-0.dtd"
   xmlns="http://www.w3.org/2000/svg"
   xmlns:svg="http://www.w3.org/2000/svg">
  <defs
     id="defs952" />
  <sodipodi:namedview
     id="namedview950"
     pagecolor="#ffffff"
     bordercolor="#666666"
     borderopacity="1.0"
     inkscape:pageshadow="2"
     inkscape:pageopacity="0.0"
     inkscape:pagecheckerboard="0"
     showgrid="false"
     inkscape:zoom="0.83002764"
     inkscape:cx="372.87915"
     inkscape:cy="117.46597"
     inkscape:window-width="1920"
     inkscape:window-height="1027"
     inkscape:window-x="1440"
     inkscape:window-y="25"
     inkscape:window-maximized="0"
     inkscape:current-layer="svg948" />
  <path
     d="m 92.822831,39.1444 c -10.7862,-12.7975 -20.0744,-25.79495 -21.9719,-28.494429 -0.1998,-0.199961 -0.4995,-0.199961 -0.6992,0 -1.8976,2.699479 -11.1857,15.696929 -21.972,28.494429 -92.5817,118.0766 14.5815,197.7616 14.5815,197.7616 l 0.8988,0.6 c 0.7989,12.297 2.7964,29.994 2.7964,29.994 h 3.9949 3.9949 c 0,0 1.9975,-17.597 2.7965,-29.994 l 0.8988,-0.7 c 0.0998,0.1 107.263399,-79.585 14.6813,-197.6616 z m -22.3715,195.9616 c 0,0 -4.7938,-4.099 -6.0922,-6.198 v -0.201 l 5.7926,-128.5744 c 0,-0.4 0.5993,-0.4 0.5993,0 l 5.7925,128.5744 v 0.201 c -1.2983,2.099 -6.0922,6.198 -6.0922,6.198 z"
     fill="#001E2B"
     id="path930"
     style="fill:#47a248;fill-opacity:1" />
</svg>
